<mxfile host="app.diagrams.net" agent="Mozilla/5.0 (Windows NT 10.0; Win64; x64) AppleWebKit/537.36 (KHTML, like Gecko) Chrome/138.0.0.0 YaBrowser/25.8.0.0 Safari/537.36" version="28.2.5">
  <diagram name="Страница — 1" id="2pXUweVeXQ0tfu0EPKvS">
    <mxGraphModel dx="1058" dy="616" grid="1" gridSize="10" guides="1" tooltips="1" connect="1" arrows="1" fold="1" page="1" pageScale="1" pageWidth="827" pageHeight="1169" math="0" shadow="0">
      <root>
        <mxCell id="0" />
        <mxCell id="1" parent="0" />
        <mxCell id="Cv1mrmhwszzGpqbsBlE--1" value="" style="ellipse;whiteSpace=wrap;html=1;" vertex="1" parent="1">
          <mxGeometry x="354" y="40" width="120" height="80" as="geometry" />
        </mxCell>
        <mxCell id="Cv1mrmhwszzGpqbsBlE--2" value="" style="endArrow=none;html=1;rounded=0;exitX=0.5;exitY=0;exitDx=0;exitDy=0;" edge="1" parent="1" source="Cv1mrmhwszzGpqbsBlE--3" target="Cv1mrmhwszzGpqbsBlE--1">
          <mxGeometry width="50" height="50" relative="1" as="geometry">
            <mxPoint x="414" y="160" as="sourcePoint" />
            <mxPoint x="414" y="120" as="targetPoint" />
          </mxGeometry>
        </mxCell>
        <mxCell id="Cv1mrmhwszzGpqbsBlE--14" style="edgeStyle=orthogonalEdgeStyle;rounded=0;orthogonalLoop=1;jettySize=auto;html=1;exitX=0.5;exitY=1;exitDx=0;exitDy=0;entryX=0.5;entryY=1;entryDx=0;entryDy=0;" edge="1" parent="1" source="Cv1mrmhwszzGpqbsBlE--3" target="Cv1mrmhwszzGpqbsBlE--11">
          <mxGeometry relative="1" as="geometry" />
        </mxCell>
        <mxCell id="Cv1mrmhwszzGpqbsBlE--3" value="" style="shape=parallelogram;perimeter=parallelogramPerimeter;whiteSpace=wrap;html=1;fixedSize=1;" vertex="1" parent="1">
          <mxGeometry x="341" y="150" width="146" height="100" as="geometry" />
        </mxCell>
        <mxCell id="Cv1mrmhwszzGpqbsBlE--5" value="" style="endArrow=none;html=1;rounded=0;exitX=0.5;exitY=0;exitDx=0;exitDy=0;" edge="1" parent="1" source="Cv1mrmhwszzGpqbsBlE--6" target="Cv1mrmhwszzGpqbsBlE--3">
          <mxGeometry width="50" height="50" relative="1" as="geometry">
            <mxPoint x="413" y="340" as="sourcePoint" />
            <mxPoint x="413" y="250" as="targetPoint" />
          </mxGeometry>
        </mxCell>
        <mxCell id="Cv1mrmhwszzGpqbsBlE--6" value="" style="rounded=0;whiteSpace=wrap;html=1;" vertex="1" parent="1">
          <mxGeometry x="315" y="297.5" width="197.5" height="110" as="geometry" />
        </mxCell>
        <mxCell id="Cv1mrmhwszzGpqbsBlE--8" value="" style="shape=parallelogram;perimeter=parallelogramPerimeter;whiteSpace=wrap;html=1;fixedSize=1;" vertex="1" parent="1">
          <mxGeometry x="342" y="450" width="142.5" height="90" as="geometry" />
        </mxCell>
        <mxCell id="Cv1mrmhwszzGpqbsBlE--9" value="" style="ellipse;whiteSpace=wrap;html=1;" vertex="1" parent="1">
          <mxGeometry x="354" y="570" width="120" height="80" as="geometry" />
        </mxCell>
        <mxCell id="Cv1mrmhwszzGpqbsBlE--10" value="Начало" style="text;strokeColor=none;align=center;fillColor=none;html=1;verticalAlign=middle;whiteSpace=wrap;rounded=0;" vertex="1" parent="1">
          <mxGeometry x="384" y="65" width="60" height="30" as="geometry" />
        </mxCell>
        <mxCell id="Cv1mrmhwszzGpqbsBlE--11" value="&lt;div&gt;river_bonfire, river_human, human_bonfire&lt;/div&gt;" style="text;strokeColor=none;align=center;fillColor=none;html=1;verticalAlign=middle;whiteSpace=wrap;rounded=0;" vertex="1" parent="1">
          <mxGeometry x="357.5" y="165" width="114" height="70" as="geometry" />
        </mxCell>
        <mxCell id="Cv1mrmhwszzGpqbsBlE--12" value="min_distance = sqrt(pow(human_bonfire, 2) + pow(river_bonfire + river_human, 2))" style="text;strokeColor=none;align=center;fillColor=none;html=1;verticalAlign=middle;whiteSpace=wrap;rounded=0;" vertex="1" parent="1">
          <mxGeometry x="316" y="310" width="195" height="85" as="geometry" />
        </mxCell>
        <mxCell id="Cv1mrmhwszzGpqbsBlE--17" value="" style="endArrow=none;html=1;rounded=0;exitX=0.5;exitY=0;exitDx=0;exitDy=0;entryX=0.5;entryY=1;entryDx=0;entryDy=0;" edge="1" parent="1" source="Cv1mrmhwszzGpqbsBlE--8" target="Cv1mrmhwszzGpqbsBlE--6">
          <mxGeometry width="50" height="50" relative="1" as="geometry">
            <mxPoint x="390" y="450" as="sourcePoint" />
            <mxPoint x="440" y="400" as="targetPoint" />
          </mxGeometry>
        </mxCell>
        <mxCell id="Cv1mrmhwszzGpqbsBlE--18" value="min_distance" style="text;strokeColor=none;align=center;fillColor=none;html=1;verticalAlign=middle;whiteSpace=wrap;rounded=0;" vertex="1" parent="1">
          <mxGeometry x="378.25" y="475" width="70" height="40" as="geometry" />
        </mxCell>
        <mxCell id="Cv1mrmhwszzGpqbsBlE--19" value="" style="endArrow=none;html=1;rounded=0;exitX=0.5;exitY=0;exitDx=0;exitDy=0;" edge="1" parent="1" source="Cv1mrmhwszzGpqbsBlE--9" target="Cv1mrmhwszzGpqbsBlE--8">
          <mxGeometry width="50" height="50" relative="1" as="geometry">
            <mxPoint x="390" y="450" as="sourcePoint" />
            <mxPoint x="380" y="570" as="targetPoint" />
          </mxGeometry>
        </mxCell>
        <mxCell id="Cv1mrmhwszzGpqbsBlE--20" value="Конец" style="text;strokeColor=none;align=center;fillColor=none;html=1;verticalAlign=middle;whiteSpace=wrap;rounded=0;" vertex="1" parent="1">
          <mxGeometry x="383.25" y="595" width="60" height="30" as="geometry" />
        </mxCell>
      </root>
    </mxGraphModel>
  </diagram>
</mxfile>
